<svg width="71" height="71" viewBox="0 0 71 71" fill="none" xmlns="http://www.w3.org/2000/svg">
<path d="M35.3471 70.2439C54.7444 70.2439 70.4691 54.5193 70.4691 35.122C70.4691 15.7246 54.7444 0 35.3471 0C15.9498 0 0.225159 15.7246 0.225159 35.122C0.225159 54.5193 15.9498 70.2439 35.3471 70.2439Z" fill="url(#paint0_linear_81_210)"/>
<path fill-rule="evenodd" clip-rule="evenodd" d="M58.2139 50.4498C57.698 50.7529 57.097 50.9267 56.4554 50.9267H14.2388C13.5972 50.9267 12.9962 50.7529 12.4803 50.4498L26.5666 36.3635L30.0433 39.8402C31.3868 41.1838 33.1728 41.8535 35.3471 41.8535C37.5214 41.8535 39.3073 41.1838 40.6509 39.8402L44.1276 36.3635L58.2139 50.4498ZM59.4556 49.2081L45.3693 35.1218L59.4556 21.0355C59.7587 21.5514 59.9324 22.1524 59.9324 22.794V47.4496C59.9324 48.0912 59.7587 48.6922 59.4556 49.2081ZM11.2385 49.2081C10.9355 48.6922 10.7617 48.0912 10.7617 47.4496V22.794C10.7617 22.1524 10.9355 21.5514 11.2385 21.0355L25.3248 35.1218L11.2385 49.2081ZM58.2139 19.7937L39.4091 38.5985C38.4112 39.5964 37.0752 40.0974 35.3471 40.0974C33.619 40.0974 32.2829 39.5964 31.285 38.5985L12.4803 19.7937C12.9962 19.4907 13.5972 19.3169 14.2388 19.3169H56.4554C57.097 19.3169 57.698 19.4907 58.2139 19.7937Z" fill="white"/>
<defs>
<linearGradient id="paint0_linear_81_210" x1="3512.42" y1="0" x2="3512.42" y2="7024.39" gradientUnits="userSpaceOnUse">
<stop stop-color="#1D6FF2"/>
<stop offset="1" stop-color="#1AC8FC"/>
</linearGradient>
</defs>
</svg>
