<svg width="73" height="72" viewBox="0 0 73 72" fill="none" xmlns="http://www.w3.org/2000/svg">
<g clip-path="url(#clip0_81_203)">
<path d="M36.3471 0C56.2293 0 72.3471 16.1178 72.3471 36C72.3471 55.8822 56.2293 72 36.3471 72C16.4649 72 0.347107 55.8822 0.347107 36C0.347107 16.1178 16.4649 0 36.3471 0Z" fill="#794A9A"/>
<path d="M37.4619 28.4233C37.4803 28.0702 37.7815 27.7988 38.1346 27.8173C39.4558 27.8861 40.555 28.286 41.3379 29.0956C42.1177 29.9018 42.5001 31.0283 42.5671 32.3812C42.5847 32.7344 42.3126 33.0349 41.9595 33.0524C41.6062 33.07 41.3058 32.7979 41.2882 32.4446C41.2308 31.2866 40.9131 30.4982 40.4175 29.9858C39.9249 29.4764 39.1731 29.1538 38.0679 29.096C37.7148 29.0776 37.4434 28.7764 37.4619 28.4233Z" fill="white"/>
<path d="M37.1766 24.3821C36.824 24.3563 36.5172 24.6212 36.4914 24.9739C36.4656 25.3265 36.7305 25.6334 37.0832 25.6592C39.521 25.8376 41.3519 26.6536 42.6615 28.0831C43.9752 29.5186 44.6199 31.3079 44.5725 33.5003C44.5649 33.8539 44.8452 34.1467 45.1988 34.1543C45.5523 34.162 45.8451 33.8816 45.8528 33.5281C45.9065 31.042 45.1655 28.9223 43.6062 27.2186C42.0299 25.4978 39.8654 24.5789 37.1766 24.3821Z" fill="white"/>
<path d="M35.361 21.6949C35.3636 21.3414 35.6522 21.0567 36.0057 21.0591C39.7214 21.085 42.8622 22.3219 45.3839 24.7803C47.9265 27.259 49.1841 30.6336 49.2159 34.8249C49.2186 35.1784 48.9342 35.4673 48.5805 35.47C48.227 35.4727 47.9382 35.1882 47.9355 34.8346C47.9055 30.9072 46.7372 27.8878 44.49 25.6971C42.2217 23.4859 39.4053 22.3633 35.9969 22.3396C35.6433 22.3371 35.3586 22.0485 35.361 21.6949ZM39.6128 40.4676C39.1281 41.0646 38.2281 40.9885 38.2281 40.9885C31.65 39.3093 29.8896 32.6461 29.8896 32.6461C29.8896 32.6461 29.8106 31.7461 30.4106 31.2616L31.5992 30.3168C32.1885 29.8626 32.5646 28.7605 31.9646 27.6843C31.5044 26.8764 31.004 26.0922 30.4653 25.3344C29.942 24.6196 28.7229 23.1561 28.7184 23.1516C28.1306 22.4581 27.2663 22.297 26.3549 22.7718C26.3549 22.7718 26.3483 22.773 26.3447 22.7742C26.3412 22.7752 26.3358 22.7763 26.3358 22.7763C25.4294 23.2986 24.612 23.9622 23.9145 24.7419C23.9121 24.7467 23.9097 24.7489 23.9073 24.7513C23.9073 24.7513 23.903 24.7554 23.9009 24.7594C23.3378 25.4389 23.0156 26.1051 22.934 26.7577C22.917 26.8539 22.9112 26.9518 22.9166 27.0493C22.9134 27.3375 22.9574 27.6243 23.0463 27.8985L23.0775 27.9198C23.3616 28.9284 24.0725 30.6084 25.6173 33.4095C26.501 35.0296 27.5201 36.5721 28.6637 38.0205C29.2367 38.7465 29.8509 39.439 30.5033 40.0947C30.5111 40.1025 30.5189 40.1103 30.5265 40.1181C30.5421 40.1338 30.5574 40.1493 30.5732 40.1644L30.7827 40.3741C31.4384 41.0265 32.1309 41.6407 32.8569 42.2137C34.3055 43.3575 35.8482 44.3766 37.4687 45.2601C40.269 46.8049 41.9505 47.5158 42.9576 47.7999L42.9789 47.8309C43.253 47.9203 43.5398 47.9644 43.8281 47.9616C43.9256 47.9664 44.0234 47.9602 44.1197 47.9434C44.7734 47.8659 45.4389 47.5441 46.1165 46.978C46.1247 46.9735 46.1247 46.9689 46.1339 46.9644C46.9137 46.2667 47.5775 45.4494 48.1002 44.5431L48.1016 44.5359C48.1028 44.5317 48.1041 44.5272 48.1041 44.524C48.5787 43.6126 48.4178 42.7483 47.7206 42.1597C47.7206 42.1597 47.6627 42.1129 47.5665 42.0336C47.1713 41.7079 46.1124 40.8355 45.5376 40.4128C44.7806 39.8743 43.9971 39.3739 43.19 38.9136C42.1131 38.3136 41.0133 38.6895 40.5576 39.279L39.6128 40.4676Z" fill="white"/>
<path fill-rule="evenodd" clip-rule="evenodd" d="M54.929 16.9366C53.6712 15.7761 48.5886 12.0865 37.2674 12.0363C37.2674 12.0363 23.9168 11.2312 17.4086 17.2009C13.7857 20.8246 12.5112 26.1267 12.3768 32.7003C12.2424 39.2737 12.0684 51.5929 23.9433 54.9333H23.9547L23.9472 60.0303C23.9472 60.0303 23.8712 62.0938 25.23 62.5147C26.6016 62.9406 27.5004 61.9188 28.6724 60.5862C28.9046 60.322 29.1477 60.0457 29.4072 59.766C30.2685 58.8379 31.4579 57.4746 32.3541 56.4325C40.4756 57.1161 46.7217 55.5538 47.4311 55.3228C47.5775 55.2754 47.7848 55.2228 48.0419 55.1574C50.6657 54.4902 58.4846 52.5021 59.8589 41.2842C61.4166 28.5874 59.1056 20.5564 54.929 16.9366ZM56.3052 40.3735C55.1583 49.6345 48.9426 51.0808 46.703 51.6019C46.4555 51.6594 46.2561 51.7059 46.118 51.7501C45.5279 51.94 40.0419 53.3049 33.1433 52.8544C33.1433 52.8544 28.0029 59.0559 26.3973 60.6684C26.1467 60.9205 25.8521 61.0222 25.6553 60.9721C25.3788 60.9045 25.3029 60.5772 25.3059 60.0987C25.3104 59.4151 25.35 51.6286 25.35 51.6286C15.6366 48.9319 15.8633 39.0393 15.9918 33.4245C15.9962 33.2328 16.0005 33.0456 16.0043 32.8642C16.1181 27.3738 17.1495 22.876 20.2134 19.8508C25.7183 14.8647 37.0586 15.6097 37.0586 15.6097C46.6352 15.6516 51.2241 18.5355 52.2882 19.5015C55.8215 22.5267 57.6215 29.7655 56.3052 40.3705V40.3735Z" fill="white"/>
</g>
<defs>
<clipPath id="clip0_81_203">
<rect width="72" height="72" fill="white" transform="translate(0.347107)"/>
</clipPath>
</defs>
</svg>
