<svg width="73" height="72" viewBox="0 0 73 72" fill="none" xmlns="http://www.w3.org/2000/svg">
<g clip-path="url(#clip0_81_195)">
<path d="M72.3471 36C72.3471 55.89 56.2371 72 36.3471 72C16.4571 72 0.347107 55.89 0.347107 36C0.347107 16.11 16.4571 0 36.3471 0C56.2371 0 72.3471 16.11 72.3471 36Z" fill="url(#paint0_linear_81_195)"/>
<path d="M29.7471 52.4999C28.5771 52.4999 28.7871 52.0499 28.3671 50.9399L24.9471 39.6599L46.1871 26.3999L48.6771 27.0599L46.6071 32.6999L29.7471 52.4999Z" fill="#C8DAEA"/>
<path d="M29.7471 52.5001C30.6471 52.5001 31.0371 52.0801 31.5471 51.6001C32.3271 50.8501 42.3471 41.1001 42.3471 41.1001L36.1971 39.6001L30.4971 43.2001L29.7471 52.2001V52.5001Z" fill="#A9C9DD"/>
<path d="M30.3471 43.3201L44.8671 54.0301C46.5171 54.9301 47.7171 54.4801 48.1371 52.5001L54.0471 24.6601C54.6471 22.2301 53.1171 21.1501 51.5271 21.8701L16.8471 35.2501C14.4771 36.2101 14.5071 37.5301 16.4271 38.1001L25.3371 40.8901L45.9471 27.9001C46.9071 27.3001 47.8071 27.6301 47.0871 28.2901L30.3471 43.3201Z" fill="url(#paint1_linear_81_195)"/>
</g>
<defs>
<linearGradient id="paint0_linear_81_195" x1="46.8981" y1="11.379" x2="28.8981" y2="53.3784" gradientUnits="userSpaceOnUse">
<stop stop-color="#37AEE2"/>
<stop offset="1" stop-color="#1E96C8"/>
</linearGradient>
<linearGradient id="paint1_linear_81_195" x1="39.0444" y1="37.1266" x2="46.5444" y2="49.1266" gradientUnits="userSpaceOnUse">
<stop stop-color="#EFF7FC"/>
<stop offset="1" stop-color="white"/>
</linearGradient>
<clipPath id="clip0_81_195">
<rect width="72" height="72" fill="white" transform="translate(0.347107)"/>
</clipPath>
</defs>
</svg>
