<svg width="147" height="144" viewBox="0 0 147 144" fill="none" xmlns="http://www.w3.org/2000/svg">
<g filter="url(#filter0_d_81_213)">
<ellipse cx="73.3471" cy="71.7441" rx="49.3471" ry="47.5" fill="white"/>
</g>
<path d="M75.0298 71.244L84.8359 61.8045C84.9848 61.6661 85.1035 61.5006 85.1852 61.3176C85.2668 61.1346 85.3098 60.9378 85.3116 60.7386C85.3134 60.5395 85.274 60.3419 85.1956 60.1576C85.1173 59.9732 85.0016 59.8058 84.8553 59.6649C84.7089 59.5241 84.535 59.4127 84.3434 59.3373C84.1519 59.2619 83.9467 59.2239 83.7398 59.2256C83.5329 59.2274 83.3284 59.2688 83.1383 59.3474C82.9482 59.426 82.7762 59.5403 82.6325 59.6835L72.8259 69.1226L63.0197 59.6835C62.7264 59.4074 62.3318 59.2537 61.9215 59.2559C61.5112 59.2581 61.1184 59.4159 60.8283 59.6951C60.5382 59.9744 60.3741 60.3525 60.3718 60.7474C60.3695 61.1423 60.529 61.5221 60.8158 61.8045L70.6224 71.244L60.8158 80.6835C60.6685 80.8222 60.5512 80.9877 60.4707 81.1704C60.3903 81.353 60.3483 81.5492 60.3471 81.7476C60.346 81.946 60.3858 82.1427 60.4641 82.3262C60.5425 82.5097 60.6579 82.6764 60.8036 82.8166C60.9494 82.9569 61.1226 83.068 61.3132 83.1434C61.5039 83.2188 61.7082 83.257 61.9143 83.2559C62.1204 83.2547 62.3242 83.2143 62.514 83.1368C62.7037 83.0593 62.8756 82.9464 63.0197 82.8045L72.8259 73.3654L82.6325 82.8045C82.9367 83.0974 83.3357 83.244 83.7342 83.244C84.1327 83.244 84.5321 83.0974 84.8359 82.8045C85.1281 82.5232 85.2922 82.1418 85.2922 81.744C85.2922 81.3463 85.1281 80.9648 84.8359 80.6835L75.0298 71.244Z" fill="#1AAF1D"/>
<defs>
<filter id="filter0_d_81_213" x="0" y="0.244141" width="146.694" height="143" filterUnits="userSpaceOnUse" color-interpolation-filters="sRGB">
<feFlood flood-opacity="0" result="BackgroundImageFix"/>
<feColorMatrix in="SourceAlpha" type="matrix" values="0 0 0 0 0 0 0 0 0 0 0 0 0 0 0 0 0 0 127 0" result="hardAlpha"/>
<feOffset/>
<feGaussianBlur stdDeviation="12"/>
<feComposite in2="hardAlpha" operator="out"/>
<feColorMatrix type="matrix" values="0 0 0 0 0.0745098 0 0 0 0 0.705882 0 0 0 0 0.0705882 0 0 0 0.44 0"/>
<feBlend mode="normal" in2="BackgroundImageFix" result="effect1_dropShadow_81_213"/>
<feBlend mode="normal" in="SourceGraphic" in2="effect1_dropShadow_81_213" result="shape"/>
</filter>
</defs>
</svg>
