<svg width="20" height="19" viewBox="0 0 20 19" fill="none" xmlns="http://www.w3.org/2000/svg">
<path d="M9.71655 0C4.47018 0 0.216553 4.25362 0.216553 9.5C0.216553 14.7464 4.47018 19 9.71655 19C14.9629 19 19.2166 14.7464 19.2166 9.5C19.2166 4.25362 14.9629 0 9.71655 0ZM14.1174 6.87206L9.56693 13.8273C9.56574 13.8284 9.56337 13.8296 9.56337 13.8308C9.53962 13.8664 9.52655 13.9068 9.49687 13.9401C9.4553 13.9852 9.40187 14.0089 9.35437 14.0434C9.34249 14.0517 9.33062 14.0612 9.31755 14.0695C9.24393 14.1158 9.16793 14.1467 9.0848 14.1669C9.05749 14.174 9.03255 14.1811 9.00405 14.1859C8.93791 14.195 8.87089 14.1958 8.80455 14.1882C8.7577 14.1853 8.7112 14.1781 8.66562 14.1669C8.61859 14.1527 8.57289 14.1344 8.52905 14.1122C8.49105 14.0944 8.45068 14.0897 8.41505 14.0671C8.38893 14.0505 8.37468 14.0244 8.35212 14.0042C8.34262 13.9959 8.33074 13.9935 8.32124 13.9852L5.67193 11.5354C5.51489 11.3846 5.42328 11.1782 5.41678 10.9606C5.41028 10.743 5.48941 10.5315 5.63717 10.3716C5.78493 10.2117 5.98952 10.1162 6.20697 10.1055C6.42442 10.0949 6.63737 10.1699 6.80005 10.3146L8.71787 12.0888L12.7257 5.96244C12.8463 5.77788 13.0353 5.6488 13.2511 5.60359C13.4669 5.55838 13.6918 5.60075 13.8764 5.72137C14.0609 5.842 14.19 6.031 14.2352 6.24679C14.2804 6.46259 14.2381 6.68751 14.1174 6.87206Z" fill="#6B6B6B"/>
</svg>
