<svg width="73" height="72" viewBox="0 0 73 72" fill="none" xmlns="http://www.w3.org/2000/svg">
<g clip-path="url(#clip0_81_200)">
<path d="M72.3471 36C72.3471 16.1177 56.2294 0 36.3471 0C16.4649 0 0.347107 16.1177 0.347107 36C0.347107 55.8823 16.4649 72 36.3471 72C56.2294 72 72.3471 55.8823 72.3471 36Z" fill="#0DC143"/>
<path d="M52.4731 19.8173C48.6136 15.8442 43.2786 13.6875 37.8298 13.6875C26.2515 13.6875 16.9434 23.1091 17.0569 34.5739C17.0569 38.2063 18.0786 41.7254 19.7812 44.9037L16.8298 55.6875L27.8407 52.8497C30.9055 54.5523 34.311 55.347 37.7163 55.347C49.1812 55.347 58.4893 45.9254 58.4893 34.4604C58.4893 28.8983 56.3326 23.6768 52.4731 19.8173ZM37.8298 51.828C34.765 51.828 31.7001 51.0334 29.0893 49.4442L28.4082 49.1037L21.8245 50.8064L23.5272 44.3361L23.0731 43.6551C18.0786 35.5956 20.4622 24.9254 28.6353 19.9308C36.8082 14.9361 47.365 17.3199 52.3596 25.493C57.3541 33.6658 54.9705 44.2227 46.7974 49.2173C44.1867 50.9199 41.0082 51.828 37.8298 51.828ZM47.8191 39.228L46.5705 38.6604C46.5705 38.6604 44.7541 37.8658 43.6191 37.2982C43.5055 37.2982 43.392 37.1848 43.2786 37.1848C42.9379 37.1848 42.711 37.2983 42.4839 37.4118C42.4839 37.4118 42.3705 37.5253 40.7812 39.3415C40.6677 39.5686 40.4407 39.6821 40.2136 39.6821H40.1001C39.9867 39.6821 39.7596 39.5686 39.646 39.4551L39.0786 39.228C37.8298 38.6604 36.6948 37.9794 35.7867 37.0713C35.5596 36.8442 35.2191 36.6172 34.992 36.3901C34.1974 35.5956 33.4029 34.6875 32.8353 33.6658L32.7217 33.4389C32.6082 33.3254 32.6082 33.2118 32.4948 32.9849C32.4948 32.7578 32.4948 32.5308 32.6082 32.4172C32.6082 32.4172 33.0622 31.8496 33.4029 31.5091C33.6298 31.282 33.7434 30.9416 33.9705 30.7146C34.1974 30.374 34.311 29.9199 34.1974 29.5794C34.0839 29.0118 32.7217 25.947 32.3812 25.2659C32.1541 24.9254 31.9272 24.8118 31.5867 24.6982H31.246C31.0191 24.6982 30.6786 24.6982 30.3379 24.6982C30.111 24.6982 29.8839 24.8118 29.6569 24.8118L29.5434 24.9253C29.3163 25.0389 29.0893 25.2658 28.8622 25.3794C28.6353 25.6063 28.5217 25.8335 28.2948 26.0604C27.5001 27.0821 27.046 28.3308 27.046 29.5794C27.046 30.4875 27.2731 31.3956 27.6136 32.1902L27.7272 32.5308C28.7488 34.6875 30.111 36.6173 31.9272 38.3199L32.3812 38.774C32.7217 39.1146 33.0622 39.3416 33.2893 39.6821C35.6731 41.7254 38.3974 43.201 41.4622 43.9956C41.8029 44.1091 42.2569 44.1091 42.5974 44.2227C42.9379 44.2227 43.392 44.2227 43.7326 44.2227C44.3001 44.2227 44.9812 43.9956 45.4353 43.7687C45.7758 43.5415 46.0029 43.5415 46.2298 43.3146L46.4569 43.0875C46.6839 42.8604 46.911 42.747 47.1379 42.5199C47.365 42.2929 47.592 42.0658 47.7055 41.8389C47.9326 41.3848 48.046 40.8172 48.1596 40.2496C48.1596 40.0227 48.1596 39.6821 48.1596 39.4551C48.1596 39.4551 48.046 39.3416 47.8191 39.228Z" fill="white"/>
</g>
<defs>
<clipPath id="clip0_81_200">
<rect width="72" height="72" fill="white" transform="translate(0.347107)"/>
</clipPath>
</defs>
</svg>
