<svg width="36" height="36" viewBox="0 0 36 36" fill="none" xmlns="http://www.w3.org/2000/svg">
<g clip-path="url(#clip0_81_53)">
<path d="M18 0C27.9411 0 36 8.0589 36 18C36 27.9411 27.9411 36 18 36C8.0589 36 0 27.9411 0 18C0 8.0589 8.0589 0 18 0Z" fill="#794A9A"/>
<path d="M18.5574 14.2116C18.5666 14.0351 18.7172 13.8994 18.8938 13.9086C19.5544 13.9431 20.104 14.143 20.4954 14.5478C20.8853 14.9509 21.0765 15.5142 21.11 16.1906C21.1188 16.3672 20.9827 16.5174 20.8062 16.5262C20.6296 16.535 20.4793 16.3989 20.4706 16.2223C20.4418 15.6433 20.283 15.2491 20.0352 14.9929C19.7889 14.7382 19.413 14.5769 18.8604 14.548C18.6838 14.5388 18.5482 14.3882 18.5574 14.2116Z" fill="white"/>
<path d="M18.4148 12.1913C18.2384 12.1784 18.0851 12.3108 18.0722 12.4872C18.0593 12.6635 18.1917 12.8169 18.368 12.8298C19.5869 12.919 20.5024 13.327 21.1572 14.0418C21.8141 14.7595 22.1364 15.6542 22.1127 16.7504C22.1089 16.9272 22.2491 17.0736 22.4258 17.0774C22.6026 17.0812 22.749 16.941 22.7528 16.7643C22.7797 15.5212 22.4092 14.4614 21.6296 13.6095C20.8414 12.7491 19.7591 12.2897 18.4148 12.1913Z" fill="white"/>
<path d="M17.507 10.8477C17.5082 10.6709 17.6525 10.5286 17.8293 10.5298C19.6871 10.5428 21.2576 11.1612 22.5184 12.3904C23.7897 13.6298 24.4185 15.317 24.4344 17.4127C24.4358 17.5895 24.2936 17.7339 24.1167 17.7353C23.9399 17.7366 23.7956 17.5943 23.7942 17.4176C23.7792 15.4538 23.195 13.9442 22.0715 12.8488C20.9373 11.7432 19.5291 11.1819 17.8249 11.1701C17.6481 11.1688 17.5058 11.0245 17.507 10.8477ZM19.6328 20.234C19.3905 20.5325 18.9405 20.4945 18.9405 20.4945C15.6515 19.6549 14.7713 16.3233 14.7713 16.3233C14.7713 16.3233 14.7317 15.8733 15.0317 15.6311L15.626 15.1586C15.9207 14.9315 16.1087 14.3805 15.8087 13.8424C15.5786 13.4384 15.3284 13.0463 15.0591 12.6674C14.7974 12.3101 14.1879 11.5783 14.1857 11.576C13.8917 11.2293 13.4596 11.1488 13.0039 11.3861C13.0039 11.3861 13.0006 11.3867 12.9988 11.3873C12.997 11.3879 12.9944 11.3884 12.9944 11.3884C12.5411 11.6495 12.1325 11.9813 11.7837 12.3712C11.7825 12.3736 11.7813 12.3747 11.7801 12.3759C11.7801 12.3759 11.7779 12.3779 11.7769 12.38C11.4953 12.7197 11.3342 13.0528 11.2934 13.3791C11.285 13.4272 11.282 13.4762 11.2847 13.5249C11.2832 13.669 11.3051 13.8124 11.3496 13.9495L11.3652 13.9601C11.5073 14.4644 11.8627 15.3044 12.6351 16.705C13.0769 17.5151 13.5865 18.2863 14.1583 19.0105C14.4448 19.3735 14.7519 19.7198 15.0781 20.0476C15.082 20.0515 15.0859 20.0554 15.0897 20.0593C15.0975 20.0672 15.1052 20.0749 15.113 20.0825L15.2178 20.1873C15.5456 20.5135 15.8919 20.8206 16.2549 21.1071C16.9792 21.679 17.7506 22.1885 18.5608 22.6303C19.9609 23.4027 20.8017 23.7581 21.3053 23.9002L21.3159 23.9157C21.4529 23.9604 21.5963 23.9825 21.7405 23.981C21.7892 23.9834 21.8381 23.9804 21.8863 23.972C22.2131 23.9332 22.5459 23.7723 22.8847 23.4893C22.8888 23.487 22.8888 23.4847 22.8934 23.4824C23.2833 23.1336 23.6152 22.7249 23.8766 22.2718L23.8772 22.2682C23.8778 22.2661 23.8785 22.2638 23.8785 22.2623C24.1158 21.8066 24.0353 21.3744 23.6867 21.0801C23.6867 21.0801 23.6578 21.0567 23.6097 21.017C23.4121 20.8542 22.8827 20.418 22.5953 20.2067C22.2167 19.9374 21.825 19.6872 21.4214 19.457C20.883 19.157 20.3331 19.345 20.1052 19.6397L19.6328 20.234Z" fill="white"/>
<path fill-rule="evenodd" clip-rule="evenodd" d="M27.2909 8.46832C26.6621 7.88805 24.1208 6.04323 18.4601 6.01816C18.4601 6.01816 11.7848 5.61562 8.53072 8.60047C6.7193 10.4123 6.08207 13.0633 6.01486 16.3501C5.94764 19.6369 5.86067 25.7965 11.7981 27.4666H11.8038L11.8 30.0151C11.8 30.0151 11.762 31.0469 12.4414 31.2574C13.1272 31.4703 13.5766 30.9594 14.1626 30.2931C14.2787 30.161 14.4003 30.0229 14.53 29.883C14.9607 29.419 15.5554 28.7373 16.0035 28.2163C20.0642 28.558 23.1873 27.7769 23.542 27.6614C23.6152 27.6377 23.7188 27.6114 23.8474 27.5787C25.1593 27.2451 29.0687 26.251 29.7559 20.6421C30.5347 14.2937 29.3792 10.2782 27.2909 8.46832ZM27.9791 20.1868C27.4056 24.8173 24.2978 25.5404 23.1779 25.801C23.0542 25.8297 22.9545 25.8529 22.8854 25.8751C22.5904 25.97 19.8474 26.6524 16.3981 26.4272C16.3981 26.4272 13.8279 29.5279 13.0251 30.3342C12.8998 30.4603 12.7525 30.5111 12.6541 30.4861C12.5158 30.4522 12.4779 30.2886 12.4794 30.0493C12.4816 29.7076 12.5014 25.8143 12.5014 25.8143C7.64475 24.466 7.75807 19.5196 7.82235 16.7122C7.82452 16.6164 7.8267 16.5228 7.82857 16.4321C7.8855 13.6869 8.4012 11.438 9.93315 9.92542C12.6856 7.43236 18.3557 7.80487 18.3557 7.80487C23.144 7.8258 25.4385 9.26775 25.9706 9.75075C27.7372 11.2633 28.6372 14.8828 27.9791 20.1853V20.1868Z" fill="white"/>
</g>
<defs>
<clipPath id="clip0_81_53">
<rect width="36" height="36" fill="white"/>
</clipPath>
</defs>
</svg>
