<svg width="36" height="36" viewBox="0 0 36 36" fill="none" xmlns="http://www.w3.org/2000/svg">
<g clip-path="url(#clip0_81_59)">
<path d="M36 18C36 27.945 27.945 36 18 36C8.055 36 0 27.945 0 18C0 8.055 8.055 0 18 0C27.945 0 36 8.055 36 18Z" fill="url(#paint0_linear_81_59)"/>
<path d="M14.7 26.2502C14.115 26.2502 14.22 26.0252 14.01 25.4702L12.3 19.8302L22.92 13.2002L24.165 13.5302L23.13 16.3502L14.7 26.2502Z" fill="#C8DAEA"/>
<path d="M14.7 26.2498C15.15 26.2498 15.345 26.0398 15.6 25.7998C15.99 25.4248 21 20.5498 21 20.5498L17.925 19.7998L15.075 21.5998L14.7 26.0998V26.2498Z" fill="#A9C9DD"/>
<path d="M15 21.6601L22.26 27.0151C23.085 27.4651 23.685 27.2401 23.895 26.2501L26.85 12.3301C27.15 11.1151 26.385 10.5751 25.59 10.9351L8.25003 17.6251C7.06503 18.1051 7.08003 18.7651 8.04003 19.0501L12.495 20.4451L22.8 13.9501C23.28 13.6501 23.73 13.8151 23.37 14.1451L15 21.6601Z" fill="url(#paint1_linear_81_59)"/>
</g>
<defs>
<linearGradient id="paint0_linear_81_59" x1="23.2755" y1="5.6895" x2="14.2755" y2="26.6892" gradientUnits="userSpaceOnUse">
<stop stop-color="#37AEE2"/>
<stop offset="1" stop-color="#1E96C8"/>
</linearGradient>
<linearGradient id="paint1_linear_81_59" x1="19.3487" y1="18.5633" x2="23.0987" y2="24.5633" gradientUnits="userSpaceOnUse">
<stop stop-color="#EFF7FC"/>
<stop offset="1" stop-color="white"/>
</linearGradient>
<clipPath id="clip0_81_59">
<rect width="36" height="36" fill="white"/>
</clipPath>
</defs>
</svg>
