<svg width="36" height="36" viewBox="0 0 36 36" fill="none" xmlns="http://www.w3.org/2000/svg">
<path d="M23.3106 9.83936H12.8319C11.1584 9.83936 9.79858 11.1992 9.79858 12.8726V23.3498C9.79858 25.0232 11.1584 26.3849 12.8319 26.3849H23.3107C24.9822 26.3849 26.344 25.0232 26.344 23.3498V12.8726C26.344 11.1991 24.9822 9.83936 23.3106 9.83936ZM18.0703 23.5582C15.0676 23.5582 12.6234 21.114 12.6234 18.1113C12.6234 15.1086 15.0677 12.6644 18.0703 12.6644C21.0749 12.6644 23.5172 15.1086 23.5172 18.1113C23.5172 21.114 21.073 23.5582 18.0703 23.5582ZM23.6932 13.7906C22.9817 13.7906 22.4041 13.2133 22.4041 12.5018C22.4041 11.792 22.9817 11.2128 23.6932 11.2128C24.4027 11.2128 24.9822 11.792 24.9822 12.5018C24.9822 13.2133 24.4027 13.7906 23.6932 13.7906Z" fill="#C72192"/>
<path d="M18.0703 14.9673C16.3375 14.9673 14.9261 16.3768 14.9261 18.1114C14.9261 19.8461 16.3375 21.2576 18.0703 21.2576C19.805 21.2576 21.2165 19.8461 21.2165 18.1114C21.2165 16.3787 19.805 14.9673 18.0703 14.9673Z" fill="#C72192"/>
<path d="M18.0703 0.485352C8.36227 0.485352 0.492188 8.35543 0.492188 18.0635C0.492188 27.7715 8.36227 35.6416 18.0703 35.6416C27.7784 35.6416 35.6484 27.7715 35.6484 18.0635C35.6484 8.3555 27.7784 0.485352 18.0703 0.485352ZM28.6448 23.3498C28.6448 26.2931 26.2522 28.6857 23.3107 28.6857H12.8319C9.89044 28.6857 7.49595 26.2932 7.49595 23.3498V12.8727C7.49595 9.93141 9.89044 7.53692 12.8319 7.53692H23.3107C26.2522 7.53692 28.6448 9.93141 28.6448 12.8727V23.3498Z" fill="#C72192"/>
</svg>
