<svg width="40" height="41" viewBox="0 0 40 41" fill="none" xmlns="http://www.w3.org/2000/svg">
<path d="M6.66669 20.5002C6.66669 20.9422 6.84228 21.3661 7.15484 21.6787C7.4674 21.9912 7.89133 22.1668 8.33335 22.1668H20.9834L17.15 25.9835C16.9938 26.1384 16.8698 26.3228 16.7852 26.5259C16.7006 26.729 16.657 26.9468 16.657 27.1668C16.657 27.3868 16.7006 27.6047 16.7852 27.8078C16.8698 28.0109 16.9938 28.1952 17.15 28.3502C17.305 28.5064 17.4893 28.6304 17.6924 28.715C17.8955 28.7996 18.1133 28.8432 18.3334 28.8432C18.5534 28.8432 18.7712 28.7996 18.9743 28.715C19.1774 28.6304 19.3617 28.5064 19.5167 28.3502L26.1834 21.6835C26.3351 21.525 26.454 21.3381 26.5334 21.1335C26.7001 20.7277 26.7001 20.2726 26.5334 19.8668C26.454 19.6622 26.3351 19.4753 26.1834 19.3168L19.5167 12.6502C19.3613 12.4948 19.1768 12.3715 18.9738 12.2874C18.7707 12.2033 18.5531 12.16 18.3334 12.16C18.1136 12.16 17.896 12.2033 17.6929 12.2874C17.4899 12.3715 17.3054 12.4948 17.15 12.6502C16.9946 12.8056 16.8714 12.99 16.7873 13.1931C16.7032 13.3961 16.6599 13.6137 16.6599 13.8335C16.6599 14.0533 16.7032 14.2709 16.7873 14.4739C16.8714 14.6769 16.9946 14.8614 17.15 15.0168L20.9834 18.8335H8.33335C7.89133 18.8335 7.4674 19.0091 7.15484 19.3217C6.84228 19.6342 6.66669 20.0581 6.66669 20.5002ZM28.3334 3.8335H11.6667C10.3406 3.8335 9.06884 4.36028 8.13115 5.29796C7.19347 6.23564 6.66669 7.50741 6.66669 8.8335V13.8335C6.66669 14.2755 6.84228 14.6994 7.15484 15.012C7.4674 15.3246 7.89133 15.5002 8.33335 15.5002C8.77538 15.5002 9.1993 15.3246 9.51186 15.012C9.82443 14.6994 10 14.2755 10 13.8335V8.8335C10 8.39147 10.1756 7.96755 10.4882 7.65498C10.8007 7.34242 11.2247 7.16683 11.6667 7.16683H28.3334C28.7754 7.16683 29.1993 7.34242 29.5119 7.65498C29.8244 7.96755 30 8.39147 30 8.8335V32.1668C30 32.6089 29.8244 33.0328 29.5119 33.3453C29.1993 33.6579 28.7754 33.8335 28.3334 33.8335H11.6667C11.2247 33.8335 10.8007 33.6579 10.4882 33.3453C10.1756 33.0328 10 32.6089 10 32.1668V27.1668C10 26.7248 9.82443 26.3009 9.51186 25.9883C9.1993 25.6758 8.77538 25.5002 8.33335 25.5002C7.89133 25.5002 7.4674 25.6758 7.15484 25.9883C6.84228 26.3009 6.66669 26.7248 6.66669 27.1668V32.1668C6.66669 33.4929 7.19347 34.7647 8.13115 35.7024C9.06884 36.64 10.3406 37.1668 11.6667 37.1668H28.3334C29.6594 37.1668 30.9312 36.64 31.8689 35.7024C32.8066 34.7647 33.3334 33.4929 33.3334 32.1668V8.8335C33.3334 7.50741 32.8066 6.23564 31.8689 5.29796C30.9312 4.36028 29.6594 3.8335 28.3334 3.8335Z" fill="black"/>
</svg>
