<svg width="36" height="34" viewBox="0 0 36 34" fill="none" xmlns="http://www.w3.org/2000/svg">
<path fill-rule="evenodd" clip-rule="evenodd" d="M27.5 22.4263C24.5034 22.4263 22.072 24.8577 22.072 27.8543C22.072 30.8509 24.5034 33.2823 27.5 33.2823C30.4965 33.2823 32.928 30.8509 32.928 27.8543C32.928 24.8577 30.4965 22.4263 27.5 22.4263ZM27.5 25.1394C28.9983 25.1394 30.2148 26.356 30.2148 27.8543C30.2148 29.3526 28.9983 30.5691 27.5 30.5691C26.0017 30.5691 24.7851 29.3526 24.7851 27.8543C24.7851 26.356 26.0017 25.1394 27.5 25.1394Z" fill="black"/>
<path fill-rule="evenodd" clip-rule="evenodd" d="M12.5714 22.4263C9.57482 22.4263 7.14337 24.8577 7.14337 27.8543C7.14337 30.8509 9.57482 33.2823 12.5714 33.2823C15.568 33.2823 17.9994 30.8509 17.9994 27.8543C17.9994 24.8577 15.568 22.4263 12.5714 22.4263ZM12.5714 25.1394C14.0697 25.1394 15.2862 26.356 15.2862 27.8543C15.2862 29.3526 14.0697 30.5691 12.5714 30.5691C11.0731 30.5691 9.85655 29.3526 9.85655 27.8543C9.85655 26.356 11.0731 25.1394 12.5714 25.1394Z" fill="black"/>
<path fill-rule="evenodd" clip-rule="evenodd" d="M3.96169 4.35548L6.7859 23.9757C6.88226 24.6434 7.45498 25.1401 8.12948 25.1401H31.9419C32.691 25.1401 33.299 24.5321 33.299 23.7829C33.299 23.0338 32.691 22.4258 31.9419 22.4258H9.30611L9.11068 21.0687H32.2581C32.3043 21.0687 32.349 21.066 32.3925 21.0619C33.1118 21.1338 33.7673 20.6263 33.8704 19.9043L35.6293 7.68998C35.7351 6.94898 35.2208 6.25953 34.4784 6.15367C34.34 6.13331 34.2015 6.13469 34.0699 6.1564C33.9993 6.14555 33.9274 6.14008 33.8555 6.14008H6.96097L6.54297 3.23176C6.47647 2.77305 6.18198 2.38082 5.75991 2.18947L2.27475 0.611118C1.59211 0.30169 0.787336 0.604313 0.477907 1.28696C0.168479 1.9696 0.47248 2.77439 1.15377 3.08382L3.96169 4.35548ZM8.71983 18.3544H31.3515L32.7195 8.85437H7.35184L8.71983 18.3544Z" fill="black"/>
</svg>
