<svg width="21" height="20" viewBox="0 0 21 20" fill="none" xmlns="http://www.w3.org/2000/svg">
<path fill-rule="evenodd" clip-rule="evenodd" d="M4.80002 11.5361L7.34261 14.7144C7.76816 15.2463 8 15.9072 8 16.5884V18.0458C8 19.2709 9.2002 20.136 10.3625 19.7486C12.4572 19.0504 13.7326 16.932 13.3696 14.754L13 12.5361L17.1591 12.5343C19.1104 12.5335 20.5416 10.6995 20.0682 8.80653L18.5682 2.80833C18.2343 1.47292 17.0344 0.536133 15.6578 0.536133H6C5.99677 0.536133 5.99355 0.536143 5.99033 0.536153H3C1.34315 0.536153 0 1.8793 0 3.53615V8.53613C0 10.193 1.34315 11.5361 3 11.5361H4.80002ZM11.0272 12.8649C10.9306 12.2851 11.0939 11.6922 11.4737 11.2437C11.8535 10.7951 12.4114 10.5364 12.9991 10.5361L17.1582 10.5343C17.8087 10.534 18.2857 9.92273 18.1279 9.29173L16.628 3.29353C16.5166 2.84839 16.1167 2.53613 15.6578 2.53613H6V9.83453L8.9043 13.465C9.6136 14.3515 10 15.4531 10 16.5884V17.7435C10.9985 17.2759 11.582 16.1933 11.3969 15.0828L11.0272 12.8649ZM4 9.53613V2.53615H3C2.44772 2.53615 2 2.98387 2 3.53615V8.53613C2 9.08843 2.44772 9.53613 3 9.53613H4Z" fill="black"/>
</svg>
