<svg width="21" height="20" viewBox="0 0 21 20" fill="none" xmlns="http://www.w3.org/2000/svg">
<path fill-rule="evenodd" clip-rule="evenodd" d="M11.0272 7.20742C10.9306 7.78722 11.0939 8.38012 11.4737 8.82862C11.8535 9.27722 12.4114 9.53592 12.9991 9.53622L17.1582 9.53802C17.8087 9.53832 18.2857 10.1496 18.1279 10.7806L16.628 16.7788C16.5166 17.2239 16.1167 17.5362 15.6578 17.5362H6V10.2378L8.9043 6.60735C9.6136 5.72079 10 4.61923 10 3.48388V2.32882C10.9985 2.79639 11.582 3.87899 11.3969 4.98954L11.0272 7.20742ZM4.8 8.53622L7.34261 5.35796C7.76816 4.82602 8 4.16509 8 3.48388V2.02649C8 0.801376 9.2002 -0.0637038 10.3625 0.323706C12.4572 1.02195 13.7326 3.14035 13.3696 5.31834L13 7.53622L17.1591 7.53802C19.1104 7.53882 20.5416 9.37282 20.0682 11.2658L18.5682 17.264C18.2343 18.5994 17.0344 19.5362 15.6578 19.5362H6H3C1.34315 19.5362 0 18.1931 0 16.5362V11.5362C0 9.87932 1.34315 8.53622 3 8.53622H4.8ZM4 10.5362H3C2.44772 10.5362 2 10.9839 2 11.5362V16.5362C2 17.0885 2.44772 17.5362 3 17.5362H4V10.5362Z" fill="black"/>
</svg>
