<svg width="24" height="25" viewBox="0 0 24 25" fill="none" xmlns="http://www.w3.org/2000/svg">
<path d="M16 6.5361C16.3948 6.5361 16.7809 6.41923 17.1094 6.2002L20 4.27314V13.5361C20 14.0884 19.5523 14.5361 19 14.5361H18V16.5361H19C20.6569 16.5361 22 15.193 22 13.5361V4.27314C22 2.67575 20.2197 1.72296 18.8906 2.60904L16 4.5361H9C7.34315 4.5361 6 5.87925 6 7.5361V8.5361H8V7.5361C8 6.98382 8.44772 6.5361 9 6.5361H16Z" fill="black"/>
<path fill-rule="evenodd" clip-rule="evenodd" d="M5.75061 18.9744C6.10524 18.6907 6.54586 18.5361 7 18.5361H15C15.5523 18.5361 16 18.0884 16 17.5361V11.5361C16 10.9838 15.5523 10.5361 15 10.5361H5C4.44772 10.5361 4 10.9838 4 11.5361V20.3749L5.75061 18.9744ZM7 20.5361H15C16.6569 20.5361 18 19.193 18 17.5361V11.5361C18 9.87928 16.6569 8.53613 15 8.53613H5C3.34315 8.53613 2 9.87928 2 11.5361V20.3749C2 22.0519 3.93986 22.9842 5.24939 21.9366L7 20.5361Z" fill="black"/>
<path fill-rule="evenodd" clip-rule="evenodd" d="M6 14.5361C6 13.9838 6.44772 13.5361 7 13.5361H13C13.5523 13.5361 14 13.9838 14 14.5361C14 15.0884 13.5523 15.5361 13 15.5361H7C6.44772 15.5361 6 15.0884 6 14.5361Z" fill="black"/>
</svg>
