<svg width="36" height="37" viewBox="0 0 36 37" fill="none" xmlns="http://www.w3.org/2000/svg">
<g clip-path="url(#clip0_81_828)">
<path d="M18 0.53418C27.9411 0.53418 36 8.59308 36 18.5342C36 28.4753 27.9411 36.5342 18 36.5342C8.0589 36.5342 0 28.4753 0 18.5342C0 8.59308 8.0589 0.53418 18 0.53418Z" fill="#794A9A"/>
<path d="M18.5574 14.7458C18.5666 14.5693 18.7172 14.4336 18.8938 14.4428C19.5544 14.4773 20.104 14.6772 20.4954 15.082C20.8853 15.4851 21.0765 16.0484 21.11 16.7248C21.1188 16.9014 20.9827 17.0516 20.8062 17.0604C20.6296 17.0692 20.4793 16.9331 20.4706 16.7565C20.4418 16.1775 20.283 15.7833 20.0352 15.5271C19.7889 15.2724 19.413 15.1111 18.8604 15.0822C18.6838 15.073 18.5482 14.9224 18.5574 14.7458Z" fill="white"/>
<path d="M18.4148 12.7255C18.2384 12.7126 18.0851 12.845 18.0722 13.0214C18.0593 13.1977 18.1917 13.3511 18.368 13.364C19.5869 13.4532 20.5024 13.8612 21.1572 14.576C21.8141 15.2937 22.1364 16.1884 22.1127 17.2846C22.1089 17.4614 22.2491 17.6078 22.4258 17.6116C22.6026 17.6154 22.749 17.4752 22.7528 17.2985C22.7797 16.0554 22.4092 14.9956 21.6296 14.1437C20.8414 13.2833 19.7591 12.8239 18.4148 12.7255Z" fill="white"/>
<path d="M17.507 11.3819C17.5082 11.2051 17.6525 11.0628 17.8293 11.064C19.6871 11.0769 21.2576 11.6954 22.5184 12.9246C23.7897 14.1639 24.4185 15.8512 24.4344 17.9469C24.4358 18.1236 24.2936 18.2681 24.1167 18.2694C23.9399 18.2708 23.7956 18.1285 23.7942 17.9517C23.7792 15.988 23.195 14.4783 22.0715 13.383C20.9373 12.2774 19.5291 11.7161 17.8249 11.7042C17.6481 11.703 17.5058 11.5587 17.507 11.3819ZM19.6328 20.7682C19.3905 21.0667 18.9405 21.0287 18.9405 21.0287C15.6515 20.1891 14.7713 16.8575 14.7713 16.8575C14.7713 16.8575 14.7317 16.4075 15.0317 16.1652L15.626 15.6928C15.9207 15.4657 16.1087 14.9147 15.8087 14.3766C15.5786 13.9726 15.3284 13.5805 15.0591 13.2016C14.7974 12.8442 14.1879 12.1125 14.1857 12.1102C13.8917 11.7635 13.4596 11.6829 13.0039 11.9203C13.0039 11.9203 13.0006 11.9209 12.9988 11.9215C12.997 11.922 12.9944 11.9226 12.9944 11.9226C12.5411 12.1837 12.1325 12.5155 11.7837 12.9054C11.7825 12.9078 11.7813 12.9089 11.7801 12.9101C11.7801 12.9101 11.7779 12.9121 11.7769 12.9141C11.4953 13.2539 11.3342 13.587 11.2934 13.9133C11.285 13.9614 11.282 14.0103 11.2847 14.0591C11.2832 14.2032 11.3051 14.3466 11.3496 14.4837L11.3652 14.4943C11.5073 14.9986 11.8627 15.8386 12.6351 17.2392C13.0769 18.0492 13.5865 18.8205 14.1583 19.5447C14.4448 19.9077 14.7519 20.2539 15.0781 20.5818C15.082 20.5857 15.0859 20.5896 15.0897 20.5935C15.0975 20.6013 15.1052 20.6091 15.113 20.6166L15.2178 20.7215C15.5456 21.0477 15.8919 21.3548 16.2549 21.6413C16.9792 22.2132 17.7506 22.7227 18.5608 23.1645C19.9609 23.9369 20.8017 24.2923 21.3053 24.4344L21.3159 24.4499C21.4529 24.4946 21.5963 24.5166 21.7405 24.5152C21.7892 24.5176 21.8381 24.5145 21.8863 24.5061C22.2131 24.4674 22.5459 24.3065 22.8847 24.0234C22.8888 24.0212 22.8888 24.0189 22.8934 24.0166C23.2833 23.6678 23.6152 23.2591 23.8766 22.806L23.8772 22.8024C23.8778 22.8003 23.8785 22.798 23.8785 22.7964C24.1158 22.3407 24.0353 21.9086 23.6867 21.6143C23.6867 21.6143 23.6578 21.5909 23.6097 21.5512C23.4121 21.3884 22.8827 20.9522 22.5953 20.7408C22.2167 20.4716 21.825 20.2214 21.4214 19.9912C20.883 19.6912 20.3331 19.8792 20.1052 20.1739L19.6328 20.7682Z" fill="white"/>
<path fill-rule="evenodd" clip-rule="evenodd" d="M27.2909 9.0025C26.6621 8.42223 24.1208 6.57741 18.4601 6.55234C18.4601 6.55234 11.7848 6.1498 8.53072 9.13465C6.7193 10.9465 6.08207 13.5975 6.01486 16.8843C5.94764 20.1711 5.86067 26.3307 11.7981 28.0008H11.8038L11.8 30.5493C11.8 30.5493 11.762 31.5811 12.4414 31.7916C13.1272 32.0045 13.5766 31.4936 14.1626 30.8273C14.2787 30.6952 14.4003 30.5571 14.53 30.4172C14.9607 29.9532 15.5554 29.2715 16.0035 28.7505C20.0642 29.0922 23.1873 28.3111 23.542 28.1956C23.6152 28.1719 23.7188 28.1456 23.8474 28.1129C25.1593 27.7793 29.0687 26.7852 29.7559 21.1763C30.5347 14.8279 29.3792 10.8124 27.2909 9.0025ZM27.9791 20.721C27.4056 25.3515 24.2978 26.0746 23.1779 26.3351C23.0542 26.3639 22.9545 26.3871 22.8854 26.4093C22.5904 26.5042 19.8474 27.1866 16.3981 26.9614C16.3981 26.9614 13.8279 30.0621 13.0251 30.8684C12.8998 30.9945 12.7525 31.0453 12.6541 31.0203C12.5158 30.9864 12.4779 30.8228 12.4794 30.5835C12.4816 30.2418 12.5014 26.3485 12.5014 26.3485C7.64475 25.0002 7.75807 20.0538 7.82235 17.2464C7.82452 17.1506 7.8267 17.057 7.82857 16.9663C7.8855 14.2211 8.4012 11.9722 9.93315 10.4596C12.6856 7.96654 18.3557 8.33905 18.3557 8.33905C23.144 8.35998 25.4385 9.80193 25.9706 10.2849C27.7372 11.7975 28.6372 15.417 27.9791 20.7195V20.721Z" fill="white"/>
</g>
<defs>
<clipPath id="clip0_81_828">
<rect width="36" height="36" fill="white" transform="translate(0 0.53418)"/>
</clipPath>
</defs>
</svg>
