<svg width="36" height="37" viewBox="0 0 36 37" fill="none" xmlns="http://www.w3.org/2000/svg">
<g clip-path="url(#clip0_81_834)">
<path d="M36 18.5342C36 28.4792 27.945 36.5342 18 36.5342C8.055 36.5342 0 28.4792 0 18.5342C0 8.58918 8.055 0.53418 18 0.53418C27.945 0.53418 36 8.58918 36 18.5342Z" fill="url(#paint0_linear_81_834)"/>
<path d="M14.7 26.7844C14.115 26.7844 14.22 26.5594 14.01 26.0044L12.3 20.3644L22.92 13.7344L24.165 14.0644L23.13 16.8844L14.7 26.7844Z" fill="#C8DAEA"/>
<path d="M14.7 26.784C15.15 26.784 15.345 26.574 15.6 26.334C15.99 25.959 21 21.084 21 21.084L17.925 20.334L15.075 22.134L14.7 26.634V26.784Z" fill="#A9C9DD"/>
<path d="M15 22.1942L22.26 27.5492C23.085 27.9992 23.685 27.7742 23.895 26.7842L26.85 12.8642C27.15 11.6492 26.385 11.1092 25.59 11.4692L8.25 18.1592C7.065 18.6392 7.08 19.2992 8.04 19.5842L12.495 20.9792L22.8 14.4842C23.28 14.1842 23.73 14.3492 23.37 14.6792L15 22.1942Z" fill="url(#paint1_linear_81_834)"/>
</g>
<defs>
<linearGradient id="paint0_linear_81_834" x1="23.2755" y1="6.22368" x2="14.2755" y2="27.2234" gradientUnits="userSpaceOnUse">
<stop stop-color="#37AEE2"/>
<stop offset="1" stop-color="#1E96C8"/>
</linearGradient>
<linearGradient id="paint1_linear_81_834" x1="19.3486" y1="19.0975" x2="23.0986" y2="25.0975" gradientUnits="userSpaceOnUse">
<stop stop-color="#EFF7FC"/>
<stop offset="1" stop-color="white"/>
</linearGradient>
<clipPath id="clip0_81_834">
<rect width="36" height="36" fill="white" transform="translate(0 0.53418)"/>
</clipPath>
</defs>
</svg>
