<svg width="36" height="37" viewBox="0 0 36 37" fill="none" xmlns="http://www.w3.org/2000/svg">
<g clip-path="url(#clip0_81_839)">
<path d="M36 18.5342C36 8.59305 27.9411 0.53418 18 0.53418C8.05887 0.53418 0 8.59305 0 18.5342C0 28.4753 8.05887 36.5342 18 36.5342C27.9411 36.5342 36 28.4753 36 18.5342Z" fill="#0DC143"/>
<path d="M26.063 10.4428C24.1333 8.45628 21.4657 7.37793 18.7414 7.37793C12.9522 7.37793 8.29814 12.0888 8.35491 17.8212C8.35491 19.6374 8.86574 21.3969 9.71706 22.986L8.24136 28.3779L13.7468 26.959C15.2792 27.8103 16.9819 28.2077 18.6846 28.2077C24.4171 28.2077 29.0711 23.4969 29.0711 17.7644C29.0711 14.9833 27.9928 12.3726 26.063 10.4428ZM18.7414 26.4482C17.209 26.4482 15.6765 26.0509 14.3711 25.2563L14.0305 25.086L10.7387 25.9374L11.59 22.7022L11.363 22.3617C8.86574 18.332 10.0576 12.9969 14.1441 10.4996C18.2305 8.00225 23.509 9.19413 26.0062 13.2807C28.5035 17.3671 27.3117 22.6455 23.2252 25.1428C21.9198 25.9941 20.3305 26.4482 18.7414 26.4482ZM23.736 20.1482L23.1117 19.8644C23.1117 19.8644 22.2035 19.4671 21.636 19.1833C21.5792 19.1833 21.5224 19.1266 21.4657 19.1266C21.2954 19.1266 21.1819 19.1833 21.0684 19.2401C21.0684 19.2401 21.0117 19.2969 20.2171 20.205C20.1603 20.3185 20.0468 20.3752 19.9333 20.3752H19.8765C19.8198 20.3752 19.7062 20.3185 19.6495 20.2617L19.3657 20.1482C18.7414 19.8644 18.1738 19.5239 17.7198 19.0698C17.6062 18.9563 17.436 18.8428 17.3224 18.7293C16.9252 18.332 16.5279 17.8779 16.2441 17.3671L16.1873 17.2536C16.1305 17.1969 16.1305 17.1401 16.0738 17.0266C16.0738 16.9131 16.0738 16.7996 16.1305 16.7428C16.1305 16.7428 16.3576 16.459 16.5279 16.2888C16.6414 16.1752 16.6981 16.005 16.8117 15.8915C16.9252 15.7212 16.9819 15.4941 16.9252 15.3239C16.8684 15.0401 16.1873 13.5077 16.0171 13.1671C15.9035 12.9969 15.79 12.9401 15.6198 12.8833H15.4495C15.336 12.8833 15.1657 12.8833 14.9954 12.8833C14.8819 12.8833 14.7684 12.9401 14.6549 12.9401L14.5981 12.9969C14.4846 13.0536 14.3711 13.1671 14.2576 13.2239C14.1441 13.3374 14.0873 13.4509 13.9738 13.5644C13.5765 14.0752 13.3495 14.6996 13.3495 15.3239C13.3495 15.7779 13.463 16.232 13.6333 16.6293L13.69 16.7996C14.2009 17.8779 14.8819 18.8428 15.79 19.6941L16.0171 19.9212C16.1873 20.0915 16.3576 20.205 16.4711 20.3752C17.663 21.3969 19.0252 22.1347 20.5576 22.532C20.7279 22.5888 20.9549 22.5888 21.1252 22.6455C21.2954 22.6455 21.5224 22.6455 21.6928 22.6455C21.9765 22.6455 22.3171 22.532 22.5441 22.4185C22.7143 22.305 22.8279 22.305 22.9414 22.1915L23.0549 22.0779C23.1684 21.9644 23.2819 21.9077 23.3954 21.7941C23.509 21.6807 23.6224 21.5671 23.6792 21.4536C23.7928 21.2266 23.8495 20.9428 23.9062 20.659C23.9062 20.5455 23.9062 20.3752 23.9062 20.2617C23.9062 20.2617 23.8495 20.205 23.736 20.1482Z" fill="white"/>
</g>
<defs>
<clipPath id="clip0_81_839">
<rect width="36" height="36" fill="white" transform="translate(0 0.53418)"/>
</clipPath>
</defs>
</svg>
