<svg width="36" height="36" viewBox="0 0 36 36" fill="none" xmlns="http://www.w3.org/2000/svg">
<path d="M23.3106 9.37354H12.8319C11.1585 9.37354 9.79861 10.7334 9.79861 12.4068V22.8839C9.79861 24.5574 11.1584 25.9191 12.8319 25.9191H23.3107C24.9822 25.9191 26.3441 24.5574 26.3441 22.8839V12.4068C26.344 10.7333 24.9822 9.37354 23.3106 9.37354ZM18.0703 23.0924C15.0676 23.0924 12.6234 20.6481 12.6234 17.6454C12.6234 14.6428 15.0677 12.1986 18.0703 12.1986C21.0749 12.1986 23.5172 14.6428 23.5172 17.6454C23.5172 20.6481 21.073 23.0924 18.0703 23.0924ZM23.6932 13.3248C22.9817 13.3248 22.4042 12.7475 22.4042 12.036C22.4042 11.3262 22.9817 10.7469 23.6932 10.7469C24.4027 10.7469 24.9822 11.3262 24.9822 12.036C24.9822 12.7475 24.4027 13.3248 23.6932 13.3248Z" fill="#C72192"/>
<path d="M18.0703 14.5015C16.3375 14.5015 14.9261 15.911 14.9261 17.6456C14.9261 19.3803 16.3375 20.7918 18.0703 20.7918C19.805 20.7918 21.2164 19.3803 21.2164 17.6456C21.2164 15.9128 19.805 14.5015 18.0703 14.5015Z" fill="#C72192"/>
<path d="M18.0703 0.0195312C8.36227 0.0195312 0.492188 7.88961 0.492188 17.5977C0.492188 27.3057 8.36227 35.1758 18.0703 35.1758C27.7784 35.1758 35.6484 27.3057 35.6484 17.5977C35.6484 7.88968 27.7784 0.0195312 18.0703 0.0195312ZM28.6448 22.884C28.6448 25.8273 26.2522 28.2199 23.3107 28.2199H12.8319C9.89044 28.2199 7.49595 25.8274 7.49595 22.884V12.4068C7.49595 9.46559 9.89044 7.0711 12.8319 7.0711H23.3107C26.2522 7.0711 28.6448 9.46559 28.6448 12.4068V22.884Z" fill="#C72192"/>
</svg>
