<svg width="61" height="61" viewBox="0 0 61 61" fill="none" xmlns="http://www.w3.org/2000/svg">
<g clip-path="url(#clip0_81_164)">
<path d="M51.5 0.5H9.5C4.52944 0.5 0.5 4.52944 0.5 9.5V51.5C0.5 56.4706 4.52944 60.5 9.5 60.5H51.5C56.4706 60.5 60.5 56.4706 60.5 51.5V9.5C60.5 4.52944 56.4706 0.5 51.5 0.5Z" fill="#EE8208"/>
<path d="M30.5 16.5547C31.6344 16.5547 32.7224 17.0053 33.5245 17.8075C34.3267 18.6096 34.7773 19.6976 34.7773 20.832C34.7773 21.9665 34.3267 23.0544 33.5245 23.8566C32.7224 24.6587 31.6344 25.1094 30.5 25.1094C29.3656 25.1094 28.2776 24.6587 27.4755 23.8566C26.6733 23.0544 26.2227 21.9665 26.2227 20.832C26.2227 19.6976 26.6733 18.6096 27.4755 17.8075C28.2776 17.0053 29.3656 16.5547 30.5 16.5547ZM30.5 31.1445C36.1953 31.1445 40.8125 26.5156 40.8125 20.832C40.8125 15.1484 36.1836 10.5195 30.5 10.5195C24.8164 10.5195 20.1875 15.1484 20.1875 20.832C20.1875 26.5156 24.8164 31.1445 30.5 31.1445ZM34.6719 39.5703C36.7882 39.0916 38.8086 38.2596 40.6484 37.1094C40.9839 36.897 41.2743 36.6206 41.503 36.2961C41.7317 35.9715 41.8942 35.605 41.9813 35.2176C42.0683 34.8302 42.0782 34.4295 42.0104 34.0382C41.9425 33.647 41.7983 33.273 41.5859 32.9375C41.3736 32.602 41.0972 32.3116 40.7726 32.0829C40.448 31.8543 40.0816 31.6917 39.6942 31.6047C39.3068 31.5176 38.906 31.5077 38.5148 31.5756C38.1236 31.6434 37.7495 31.7876 37.4141 32C35.3301 33.3022 32.9222 33.9927 30.4648 33.9927C28.0075 33.9927 25.5996 33.3022 23.5156 32C23.1801 31.7876 22.8061 31.6434 22.4149 31.5756C22.0237 31.5077 21.6229 31.5176 21.2355 31.6047C20.8481 31.6917 20.4817 31.8543 20.1571 32.0829C19.8325 32.3116 19.5561 32.602 19.3438 32.9375C19.1314 33.273 18.9871 33.647 18.9193 34.0382C18.8515 34.4295 18.8614 34.8302 18.9484 35.2176C19.0355 35.605 19.198 35.9715 19.4267 36.2961C19.6554 36.6206 19.9458 36.897 20.2813 37.1094C22.1445 38.2812 24.1484 39.1016 26.2578 39.5703L20.5156 45.3477C19.9484 45.9149 19.6298 46.6842 19.6298 47.4863C19.6298 48.2885 19.9484 49.0578 20.5156 49.625C21.0828 50.1922 21.8521 50.5109 22.6543 50.5109C23.4565 50.5109 24.2258 50.1922 24.793 49.625L30.4648 43.9414L36.1367 49.6133C36.4175 49.8943 36.7509 50.1172 37.1179 50.2692C37.4848 50.4213 37.8782 50.4996 38.2754 50.4996C38.6726 50.4996 39.066 50.4213 39.4329 50.2692C39.7999 50.1172 40.1333 49.8943 40.4141 49.6133C40.695 49.3325 40.9179 48.9991 41.07 48.6321C41.2221 48.2652 41.3004 47.8718 41.3004 47.4746C41.3004 47.0774 41.2221 46.684 41.07 46.3171C40.9179 45.9501 40.695 45.6167 40.4141 45.3359L34.6367 39.5586" fill="white"/>
</g>
<defs>
<clipPath id="clip0_81_164">
<rect width="60" height="60" fill="white" transform="translate(0.5 0.5)"/>
</clipPath>
</defs>
</svg>
