<svg width="61" height="61" viewBox="0 0 61 61" fill="none" xmlns="http://www.w3.org/2000/svg">
<g clip-path="url(#clip0_81_150)">
<path d="M51.5 0.5H9.5C4.52944 0.5 0.5 4.52944 0.5 9.5V51.5C0.5 56.4706 4.52944 60.5 9.5 60.5H51.5C56.4706 60.5 60.5 56.4706 60.5 51.5V9.5C60.5 4.52944 56.4706 0.5 51.5 0.5Z" fill="#37AEE2"/>
<path d="M23.8203 47.8438C22.5312 47.8438 22.6484 47.375 22.2969 46.2031L18.5469 33.8984L47.2578 17.0234" fill="#C8DAEA"/>
<path d="M23.8203 47.8438C24.6406 47.8438 25.1094 47.375 25.6953 46.9062L30.9688 41.8672L24.4062 37.8828" fill="#A9C9DD"/>
<path d="M24.4062 37.8827L40.2266 49.4843C41.8672 50.539 43.2734 49.953 43.7422 47.8437L50.1875 17.6093C50.7734 15.0312 49.1328 13.8593 47.375 14.6796L9.75781 29.2108C7.29687 30.1483 7.29687 31.6718 9.28906 32.2577L19.0156 35.3046L41.2812 21.1249C42.3359 20.539 43.2734 20.7733 42.5703 21.5937" fill="#F6FBFE"/>
</g>
<defs>
<clipPath id="clip0_81_150">
<rect width="60" height="60" fill="white" transform="translate(0.5 0.5)"/>
</clipPath>
</defs>
</svg>
