<svg width="61" height="61" viewBox="0 0 61 61" fill="none" xmlns="http://www.w3.org/2000/svg">
<path d="M47.0327 0.5H13.9673C6.5295 0.5 0.5 6.5295 0.5 13.9673V47.0327C0.5 54.4705 6.5295 60.5 13.9673 60.5H47.0327C54.4705 60.5 60.5 54.4705 60.5 47.0327V13.9673C60.5 6.5295 54.4705 0.5 47.0327 0.5Z" fill="#7D3DAF"/>
<path d="M45.8689 21.865C45.305 20.1436 44.3284 18.5864 43.0242 17.3294C41.72 16.0723 40.128 15.1536 38.3871 14.6533C33.2109 13.6598 27.893 13.6598 22.7168 14.6533C20.9461 15.1227 19.3191 16.0231 17.981 17.2742C16.6428 18.5253 15.6352 20.0882 15.048 21.8234C14.0898 26.1703 14.0898 30.6736 15.048 35.0205C15.5916 36.6733 16.5134 38.1765 17.7401 39.4104C18.9668 40.6444 20.4645 41.575 22.1141 42.1282V45.6405C22.1148 45.9221 22.1995 46.1971 22.3574 46.4302C22.5153 46.6633 22.7393 46.8439 23.0006 46.9488C23.2618 47.0538 23.5485 47.0783 23.8238 47.0192C24.0991 46.9602 24.3505 46.8202 24.5457 46.6173L28.0996 42.9388H30.4065C33.0359 42.9366 35.6593 42.6861 38.2416 42.1906C39.9825 41.6904 41.5746 40.7716 42.8787 39.5145C44.1829 38.2575 45.1595 36.7003 45.7234 34.9789C46.7174 30.6693 46.767 26.1956 45.8689 21.865ZM43.0632 34.3347C42.6286 35.5267 41.927 36.6035 41.012 37.4825C40.097 38.3614 38.9929 39.0193 37.7844 39.4057C35.0453 39.9255 32.2581 40.1485 29.4713 40.0707C29.4482 40.061 29.4235 40.056 29.3985 40.056C29.3735 40.056 29.3488 40.061 29.3258 40.0707L26.7071 42.8972L23.943 45.7237C23.8966 45.7677 23.8385 45.7974 23.7757 45.8092C23.7129 45.821 23.6479 45.8145 23.5887 45.7904C23.5295 45.7662 23.4785 45.7255 23.4418 45.6732C23.4051 45.6208 23.3843 45.5589 23.3819 45.495V39.6966C23.3783 39.6516 23.3601 39.609 23.3301 39.5753C23.3001 39.5415 23.2599 39.5185 23.2156 39.5096C22.0071 39.1232 20.903 38.4654 19.988 37.5864C19.073 36.7074 18.3714 35.6306 17.9368 34.4386C17.0738 30.509 17.0738 26.4389 17.9368 22.5092C18.3714 21.3172 19.073 20.2404 19.988 19.3615C20.903 18.4825 22.0071 17.8246 23.2156 17.4382C28.0214 16.5195 32.9578 16.5195 37.7636 17.4382C38.9721 17.8246 40.0762 18.4825 40.9912 19.3615C41.9062 20.2404 42.6079 21.3172 43.0424 22.5092C43.9129 26.4373 43.92 30.5075 43.0632 34.4386V34.3347Z" fill="white"/>
<path d="M37.535 33.42C37.1026 33.0574 36.6517 32.7175 36.1841 32.4016C35.7061 32.0691 35.2489 31.7366 34.7501 31.4249C34.531 31.2613 34.2649 31.1729 33.9915 31.1729C33.7181 31.1729 33.452 31.2613 33.2329 31.4249C32.7757 31.7989 32.5471 32.5263 31.9028 32.6095C31.5247 32.6194 31.1511 32.526 30.8221 32.3393C29.8344 31.9037 28.9519 31.2607 28.2347 30.4538C27.5175 29.6469 26.9823 28.6952 26.6656 27.6632C26.6015 27.534 26.5681 27.3917 26.5681 27.2475C26.5681 27.1033 26.6015 26.961 26.6656 26.8319C26.7555 26.6961 26.868 26.5766 26.9981 26.4785L27.4345 26.146C27.7203 25.9479 27.9186 25.6472 27.9883 25.3066C28.058 24.9659 27.9936 24.6115 27.8086 24.3171C27.2164 23.305 26.5199 22.3577 25.7303 21.4907C25.5846 21.2918 25.3728 21.1513 25.133 21.0942C24.8931 21.0371 24.6408 21.0671 24.421 21.1789C23.8003 21.4689 23.2479 21.8868 22.8 22.4051C22.5147 22.6605 22.3055 22.9897 22.1955 23.3564C22.0854 23.7232 22.0789 24.1132 22.1765 24.4834C22.509 25.2939 22.8415 26.1045 23.2156 26.8942C24.0076 28.5609 25.0213 30.1129 26.2291 31.508C28.4158 33.8476 31.1106 35.6537 34.1058 36.7868C34.3968 36.9115 34.7085 36.9739 35.0203 37.0778C35.3053 37.0141 35.5836 36.9237 35.8516 36.8076C36.7046 36.3433 37.3831 35.6137 37.7844 34.7293C37.8989 34.5155 37.9366 34.2688 37.8912 34.0306C37.8458 33.7923 37.7201 33.5768 37.535 33.42Z" fill="white"/>
<path d="M30.5104 20.2227H30.2818C30.2134 20.2221 30.1457 20.2362 30.0832 20.264C30.0207 20.2918 29.965 20.3327 29.9197 20.3839C29.8744 20.4352 29.8406 20.4955 29.8206 20.5609C29.8006 20.6263 29.7948 20.6952 29.8038 20.763C29.8038 21.1163 30.2194 21.1163 30.5104 21.1579C30.8013 21.1995 31.404 21.1579 31.8197 21.3034C33.2443 21.5688 34.5506 22.272 35.5565 23.3151C36.5623 24.3583 37.2177 25.6893 37.4311 27.1226C37.4311 27.6629 37.535 28.2241 37.5765 28.7852C37.6181 29.3463 37.7428 29.3255 38.0545 29.3255C38.1205 29.3237 38.1853 29.3075 38.2444 29.2782C38.3036 29.2489 38.3556 29.2071 38.3971 29.1558C38.4386 29.1045 38.4684 29.0448 38.4846 28.9808C38.5008 28.9168 38.503 28.8501 38.491 28.7852C38.491 28.1201 38.491 27.4551 38.2832 26.7069C37.9483 24.8887 36.9878 23.2449 35.5682 22.0606C34.1485 20.8763 32.3592 20.2261 30.5104 20.2227Z" fill="white"/>
<path d="M35.5191 27.8296C35.4992 27.9535 35.4992 28.0797 35.5191 28.2037C35.5473 28.2917 35.6027 28.3686 35.6774 28.4231C35.7521 28.4776 35.8422 28.507 35.9347 28.507C36.0272 28.507 36.1173 28.4776 36.192 28.4231C36.2667 28.3686 36.3222 28.2917 36.3504 28.2037C36.3571 28.1137 36.3571 28.0234 36.3504 27.9335V27.2684V27.019C36.2518 26.1703 35.9438 25.3593 35.4541 24.6592C34.9643 23.959 34.3082 23.3916 33.5447 23.008C32.7513 22.6025 31.8788 22.3756 30.9884 22.3429C30.9304 22.3371 30.8719 22.3435 30.8165 22.3618C30.7612 22.38 30.7103 22.4097 30.6672 22.4489C30.6241 22.4881 30.5897 22.5359 30.5663 22.5893C30.5428 22.6426 30.5309 22.7003 30.5312 22.7586C30.5224 22.8164 30.5259 22.8755 30.5414 22.9319C30.557 22.9883 30.5844 23.0408 30.6216 23.0859C30.6589 23.1311 30.7053 23.1678 30.7578 23.1938C30.8102 23.2197 30.8676 23.2343 30.9261 23.2366L31.6742 23.3613C32.1857 23.4411 32.6828 23.5951 33.1498 23.8185C33.9217 24.2004 34.5648 24.8001 34.9995 25.5435C35.3623 26.2496 35.541 27.036 35.5191 27.8296Z" fill="white"/>
<path d="M34.3552 27.5178C34.3743 27.3939 34.3743 27.2677 34.3552 27.1438C34.3579 26.7899 34.2906 26.4391 34.1571 26.1114C34.0236 25.7837 33.8266 25.4857 33.5773 25.2346C33.3281 24.9834 33.0316 24.7841 32.705 24.648C32.3784 24.512 32.028 24.442 31.6742 24.442C31.5601 24.4343 31.447 24.4679 31.3554 24.5365C31.2639 24.6052 31.2 24.7044 31.1754 24.8161C31.1634 24.8735 31.1631 24.9327 31.1745 24.9902C31.1859 25.0478 31.2087 25.1024 31.2417 25.1509C31.2747 25.1994 31.3171 25.2408 31.3664 25.2725C31.4157 25.3042 31.4709 25.3257 31.5287 25.3356C31.7573 25.3356 32.0067 25.3356 32.2561 25.4396C32.4424 25.4922 32.6181 25.5766 32.7757 25.689C33.1045 25.9412 33.3329 26.3022 33.42 26.7073C33.4333 26.9149 33.4333 27.1232 33.42 27.3308C33.4199 27.3954 33.4329 27.4593 33.4582 27.5187C33.4836 27.578 33.5206 27.6317 33.5672 27.6764C33.6139 27.721 33.669 27.7558 33.7294 27.7786C33.7899 27.8013 33.8543 27.8116 33.9188 27.8088C34.0145 27.8221 34.1118 27.7999 34.1923 27.7463C34.2727 27.6926 34.3307 27.6114 34.3552 27.5178Z" fill="white"/>
</svg>
