<svg width="61" height="61" viewBox="0 0 61 61" fill="none" xmlns="http://www.w3.org/2000/svg">
<g clip-path="url(#clip0_81_147)">
<path fill-rule="evenodd" clip-rule="evenodd" d="M21.2904 0.5H39.7096C56.5198 0.5 60.5 4.48024 60.5 21.2904V39.7096C60.5 56.5198 56.5198 60.5 39.7096 60.5H21.2904C4.48024 60.5 0.5 56.5198 0.5 39.7096V21.2904C0.5 4.48024 4.48024 0.5 21.2904 0.5Z" fill="#4680C2"/>
<path fill-rule="evenodd" clip-rule="evenodd" d="M49.5403 19.6514C49.8366 18.7199 49.5402 18.0424 48.2276 18.0424H43.8662C42.7654 18.0424 42.2573 18.6351 41.9609 19.2704C41.9609 19.2704 39.7166 24.6902 36.5833 28.2046C35.567 29.2209 35.1012 29.5596 34.5509 29.5596C34.2544 29.5596 33.8734 29.2209 33.8734 28.2894V19.609C33.8734 18.5081 33.5346 18 32.603 18H25.7435C25.066 18 24.6426 18.5081 24.6426 19.0162C24.6426 20.0749 26.2092 20.3289 26.3786 23.2929V29.729C26.3786 31.1264 26.1246 31.3804 25.5741 31.3804C24.0921 31.3804 20.493 25.9181 18.3335 19.6937C17.91 18.4657 17.4866 18 16.3857 18H11.982C10.7117 18 10.5 18.5929 10.5 19.228C10.5 20.3712 11.982 26.1299 17.4019 33.7516C21.0011 38.9597 26.1246 41.7544 30.74 41.7544C33.5346 41.7544 33.8734 41.1192 33.8734 40.0607V36.1229C33.8734 34.8525 34.1274 34.6409 35.0166 34.6409C35.6518 34.6409 36.795 34.9795 39.3779 37.4777C42.3419 40.4417 42.85 41.7967 44.5014 41.7967H48.8628C50.133 41.7967 50.7259 41.1616 50.3871 39.9336C50.006 38.7057 48.5664 36.9274 46.7033 34.8101C45.687 33.6246 44.1626 32.312 43.6969 31.6768C43.0617 30.83 43.2311 30.4913 43.6969 29.729C43.6546 29.729 48.9897 22.192 49.5403 19.6514Z" fill="white"/>
</g>
<defs>
<clipPath id="clip0_81_147">
<rect width="60" height="60" fill="white" transform="translate(0.5 0.5)"/>
</clipPath>
</defs>
</svg>
