<svg width="61" height="61" viewBox="0 0 61 61" fill="none" xmlns="http://www.w3.org/2000/svg">
<g clip-path="url(#clip0_81_167)">
<path d="M60.4966 45.333C60.4966 45.6615 60.4865 46.374 60.4668 46.9244C60.4185 48.271 60.3118 50.0087 60.1503 50.8004C59.9077 51.9902 59.5414 53.1132 59.0639 54.0479C58.4989 55.1537 57.7782 56.1441 56.9218 56.999C56.0672 57.8521 55.0777 58.57 53.9736 59.1327C53.034 59.6115 51.904 59.978 50.7074 60.2196C49.9235 60.3778 48.1988 60.4825 46.8608 60.5301C46.3099 60.5498 45.5973 60.5597 45.27 60.5597L15.7255 60.555C15.3969 60.555 14.6846 60.5449 14.1342 60.5251C12.7875 60.4768 11.0499 60.3701 10.2581 60.2087C9.06829 59.966 7.94523 59.5998 7.01054 59.1223C5.90476 58.5572 4.91435 57.8365 4.05952 56.9801C3.2064 56.1256 2.48851 55.1361 1.92583 54.032C1.44689 53.0923 1.08044 51.9623 0.83886 50.7658C0.680657 49.9819 0.57595 48.2572 0.528313 46.9191C0.508743 46.3683 0.49884 45.6557 0.49884 45.3284L0.503528 15.7838C0.503528 15.4553 0.513547 14.7429 0.533293 14.1925C0.581633 12.8458 0.688332 11.1082 0.849758 10.3164C1.0924 9.12664 1.45861 8.00357 1.9362 7.06883C2.50122 5.96311 3.22198 4.97264 4.07833 4.11781C4.93286 3.26475 5.92239 2.5468 7.02648 1.98406C7.96615 1.50523 9.09624 1.13879 10.2928 0.897207C11.0766 0.738945 12.8013 0.634238 14.1393 0.58666C14.6902 0.567031 15.4029 0.557129 15.7301 0.557129L45.2747 0.561875C45.6033 0.561875 46.3156 0.571895 46.866 0.591641C48.2127 0.63998 49.9503 0.74668 50.7421 0.908105C51.9319 1.15074 53.0549 1.51695 53.9897 1.99455C55.0954 2.55957 56.0858 3.28033 56.9406 4.13668C57.7937 4.99121 58.5116 5.98068 59.0743 7.08482C59.5533 8.02449 59.9197 9.15453 60.1613 10.3511C60.3195 11.1349 60.4241 12.8596 60.4718 14.1977C60.4915 14.7486 60.5014 15.4612 60.5014 15.7885L60.4966 45.333Z" fill="url(#paint0_linear_81_167)"/>
<path d="M46.3966 14.7529C42.3343 10.6873 36.932 8.44711 31.1761 8.44482C19.3166 8.44482 9.6644 18.0933 9.65966 29.9529C9.65813 33.7439 10.6489 37.4444 12.5317 40.7062L9.47925 51.8524L20.8854 48.8614C24.0281 50.5749 27.5664 51.478 31.1675 51.4795H31.1764C43.0347 51.4795 52.6878 41.8298 52.6926 29.9701C52.6949 24.2228 50.459 18.8186 46.3966 14.7529ZM31.1764 47.8467H31.1691C27.9601 47.8455 24.8126 46.9837 22.0669 45.3548L21.4138 44.9674L14.6452 46.7423L16.4519 40.1452L16.0266 39.4687C14.2364 36.6223 13.2909 33.3323 13.2924 29.9544C13.2962 20.0972 21.3188 12.0776 31.1833 12.0776C35.9599 12.0795 40.4501 13.9416 43.8266 17.3207C47.2031 20.6999 49.0615 25.1917 49.0597 29.9687C49.0559 39.8267 41.0333 47.8467 31.1764 47.8467ZM40.9859 34.4572C40.4482 34.1882 37.805 32.8879 37.3122 32.7086C36.8194 32.5291 36.4611 32.4395 36.1025 32.9776C35.7442 33.5156 34.7139 34.7262 34.4002 35.0849C34.0866 35.4436 33.773 35.4885 33.2354 35.2194C32.6978 34.9504 30.9655 34.3829 28.912 32.5519C27.3139 31.1269 26.2348 29.3668 25.9212 28.8287C25.6076 28.2906 25.8879 27.9998 26.157 27.7318C26.3988 27.491 26.6946 27.1041 26.9634 26.7902C27.2322 26.4765 27.3219 26.2522 27.501 25.8935C27.6803 25.5348 27.5906 25.2209 27.4562 24.9519C27.3219 24.6829 26.2466 22.0375 25.7986 20.9614C25.3623 19.9134 24.9189 20.0552 24.5889 20.0388C24.2757 20.0232 23.9169 20.0199 23.5586 20.0199C23.2002 20.0199 22.6177 20.1544 22.125 20.6924C21.6322 21.2305 20.2433 22.5308 20.2433 25.1761C20.2433 27.8214 22.1697 30.3771 22.4385 30.7358C22.7074 31.0945 26.2295 36.5231 31.6226 38.8511C32.9053 39.4048 33.9067 39.7355 34.6875 39.9833C35.9754 40.3922 37.1474 40.3345 38.0738 40.1962C39.1067 40.0419 41.2545 38.8961 41.7026 37.6406C42.1507 36.3851 42.1507 35.3091 42.0162 35.0849C41.8818 34.8608 41.5235 34.7262 40.9859 34.4572Z" fill="white"/>
</g>
<defs>
<linearGradient id="paint0_linear_81_167" x1="30.5001" y1="0.557129" x2="30.5001" y2="60.5598" gradientUnits="userSpaceOnUse">
<stop stop-color="#61FD7D"/>
<stop offset="1" stop-color="#2BB826"/>
</linearGradient>
<clipPath id="clip0_81_167">
<rect width="60" height="60" fill="white" transform="translate(0.5 0.5)"/>
</clipPath>
</defs>
</svg>
