<svg width="421" height="410" viewBox="0 0 421 410" fill="none" xmlns="http://www.w3.org/2000/svg">
<g clip-path="url(#clip0_81_481)">
<path d="M379.297 325.377C379.617 327.972 379.874 330.586 380.067 333.217L377.075 333.437C377.357 337.266 377.5 341.134 377.5 345.036C377.5 348.938 377.357 352.806 377.075 356.635L380.067 356.855C379.874 359.487 379.617 362.1 379.297 364.695L376.319 364.328C375.362 372.09 373.835 379.677 371.781 387.046L374.671 387.851C373.964 390.388 373.195 392.9 372.367 395.385L369.521 394.436C367.06 401.818 364.063 408.957 360.576 415.808L363.249 417.169C362.056 419.513 360.806 421.823 359.502 424.099L356.899 422.608C353.045 429.334 348.704 435.75 343.925 441.809L346.28 443.667C344.653 445.73 342.976 447.752 341.251 449.731L338.989 447.76C333.91 453.589 328.406 459.042 322.524 464.073L324.474 466.353C322.48 468.059 320.442 469.717 318.364 471.326L316.528 468.954C310.431 473.675 303.977 477.961 297.213 481.765L298.683 484.38C296.398 485.665 294.077 486.897 291.724 488.073L290.383 485.389C283.509 488.824 276.349 491.774 268.947 494.195L269.88 497.047C267.391 497.861 264.875 498.616 262.334 499.312L261.542 496.418C254.164 498.436 246.57 499.937 238.8 500.877L239.161 503.855C236.566 504.169 233.951 504.422 231.32 504.612L231.104 501.619C227.273 501.896 223.403 502.036 219.5 502.036C215.597 502.036 211.727 501.896 207.896 501.619L207.68 504.612C205.049 504.422 202.435 504.169 199.839 503.855L200.2 500.877C192.43 499.937 184.836 498.436 177.458 496.418L176.666 499.312C174.125 498.616 171.609 497.861 169.12 497.047L170.053 494.195C162.651 491.774 155.491 488.824 148.617 485.389L147.276 488.073C144.923 486.897 142.602 485.665 140.317 484.38L141.788 481.765C135.023 477.961 128.569 473.675 122.472 468.954L120.636 471.326C118.558 469.717 116.52 468.059 114.526 466.353L116.476 464.073C110.594 459.042 105.09 453.589 100.011 447.76L97.7489 449.731C96.0239 447.752 94.3468 445.73 92.7197 443.667L95.0751 441.809C90.2957 435.75 85.9552 429.334 82.1007 422.608L79.4978 424.099C78.1937 421.823 76.9441 419.513 75.7509 417.169L78.4244 415.808C74.9366 408.957 71.9397 401.818 69.4793 394.436L66.6332 395.385C65.805 392.9 65.0364 390.388 64.3291 387.851L67.2189 387.046C65.1648 379.677 63.6377 372.09 62.6807 364.328L59.7032 364.695C59.3833 362.1 59.1259 359.487 58.9326 356.855L61.9245 356.635C61.6432 352.806 61.5 348.938 61.5 345.036C61.5 341.134 61.6432 337.266 61.9246 333.437L58.9326 333.217C59.126 330.586 59.3833 327.972 59.7032 325.377L62.6807 325.744C63.6377 317.982 65.1648 310.395 67.2189 303.027L64.3291 302.221C65.0364 299.684 65.805 297.172 66.6332 294.687L69.4793 295.636C71.9397 288.254 74.9366 281.115 78.4244 274.264L75.7509 272.903C76.9441 270.56 78.1937 268.249 79.4978 265.973L82.1007 267.465C85.9552 260.738 90.2957 254.322 95.0751 248.263L92.7197 246.405C94.3468 244.343 96.0238 242.321 97.7489 240.341L100.011 242.312C105.09 236.483 110.594 231.03 116.476 225.999L114.526 223.719C116.52 222.013 118.558 220.355 120.636 218.746L122.472 221.118C128.569 216.397 135.023 212.112 141.788 208.307L140.317 205.692C142.602 204.407 144.923 203.175 147.276 202L148.617 204.683C155.491 201.249 162.651 198.298 170.053 195.877L169.12 193.026C171.609 192.211 174.125 191.456 176.666 190.761L177.458 193.654C184.836 191.636 192.43 190.136 200.2 189.195L199.839 186.217C202.434 185.903 205.049 185.651 207.68 185.461L207.896 188.453C211.727 188.177 215.597 188.036 219.5 188.036C223.403 188.036 227.273 188.177 231.104 188.453L231.32 185.461C233.951 185.651 236.566 185.903 239.161 186.217L238.8 189.195C246.57 190.135 254.164 191.636 261.542 193.654L262.334 190.761C264.875 191.456 267.391 192.211 269.88 193.026L268.947 195.877C276.349 198.298 283.509 201.249 290.383 204.683L291.724 202C294.077 203.175 296.398 204.407 298.683 205.692L297.212 208.307C303.977 212.112 310.431 216.397 316.528 221.118L318.364 218.746C320.442 220.355 322.48 222.013 324.474 223.719L322.524 225.999C328.406 231.03 333.91 236.483 338.989 242.312L341.251 240.341C342.976 242.321 344.653 244.343 346.28 246.405L343.925 248.263C348.704 254.322 353.045 260.738 356.899 267.465L359.502 265.973C360.806 268.249 362.056 270.56 363.249 272.903L360.576 274.264C364.063 281.115 367.06 288.254 369.521 295.636L372.367 294.687C373.195 297.172 373.964 299.684 374.671 302.221L371.781 303.027C373.835 310.395 375.362 317.982 376.319 325.744L379.297 325.377Z" stroke="#6A6A6A" stroke-width="6" stroke-linejoin="round" stroke-dasharray="24 8"/>
<ellipse cx="219.5" cy="345.098" rx="151" ry="150.062" fill="#FE6A00"/>
</g>
<defs>
<clipPath id="clip0_81_481">
<rect width="420" height="409" fill="white" transform="translate(0.500015 0.0361328)"/>
</clipPath>
</defs>
</svg>
